<svg width="24" height="25" viewBox="0 0 24 25" fill="none" xmlns="http://www.w3.org/2000/svg">
<path d="M13.3372 14.4793C12.9391 14.7447 12.4767 14.885 12 14.885C11.5233 14.885 11.0609 14.7447 10.6629 14.4793L4.10653 10.1083C4.07016 10.084 4.03472 10.0587 4 10.0327V17.1952C4 18.0163 4.66641 18.6681 5.47291 18.6681H18.5271C19.3482 18.6681 20 18.0017 20 17.1952V10.0327C19.9652 10.0588 19.9297 10.0841 19.8932 10.1084L13.3372 14.4793Z" fill="white"/>
<path d="M4.62656 9.32807L11.1829 13.6991C11.4311 13.8646 11.7155 13.9473 12 13.9473C12.2844 13.9473 12.5689 13.8646 12.8171 13.6991L19.3734 9.32807C19.7658 9.06666 20 8.62916 20 8.15698C20 7.34507 19.3395 6.68457 18.5276 6.68457H5.47241C4.66053 6.6846 4 7.3451 4 8.15776C4 8.62916 4.23425 9.06666 4.62656 9.32807Z" fill="white"/>
</svg>
