<svg width="24" height="25" viewBox="0 0 24 25" fill="none" xmlns="http://www.w3.org/2000/svg">
<path d="M17.4771 11.3986C17.4963 9.14281 15.575 7.07484 13.1943 6.78888C13.1469 6.78327 13.0953 6.77472 13.0407 6.76568C12.9229 6.74615 12.801 6.72607 12.678 6.72607C12.1901 6.72607 12.0596 7.06883 12.0253 7.27325C11.9919 7.47201 12.0237 7.63892 12.1198 7.76955C12.2814 7.98928 12.5657 8.02828 12.7941 8.05954C12.861 8.06878 12.9242 8.07737 12.977 8.08925C15.1161 8.56721 15.8363 9.31866 16.1883 11.4395C16.1969 11.4913 16.2008 11.5552 16.2049 11.6229C16.2203 11.8764 16.2523 12.4039 16.8193 12.4039H16.8194C16.8666 12.4039 16.9173 12.3998 16.9701 12.3917C17.4982 12.3115 17.4816 11.8294 17.4737 11.5977C17.4714 11.5325 17.4693 11.4708 17.4748 11.4297C17.4763 11.4194 17.477 11.409 17.4771 11.3986Z" fill="white"/>
<path d="M12.5395 5.96099C12.6028 5.96556 12.6628 5.96993 12.7127 5.97758C16.2252 6.51776 17.8406 8.18195 18.2882 11.7219C18.2958 11.7821 18.297 11.8555 18.2983 11.9332C18.3027 12.2098 18.3119 12.7851 18.9298 12.797L18.949 12.7972C19.1428 12.7972 19.2969 12.7388 19.4072 12.6234C19.5995 12.4222 19.5861 12.1234 19.5753 11.8832C19.5726 11.8242 19.5701 11.7687 19.5708 11.7201C19.6154 8.09967 16.4815 4.81664 12.8643 4.69456C12.8493 4.69406 12.835 4.69486 12.8205 4.69689C12.8134 4.69794 12.8002 4.69923 12.7777 4.69923C12.7416 4.69923 12.6972 4.6961 12.6502 4.69292C12.5933 4.68904 12.5288 4.68457 12.4634 4.68457C11.8874 4.68457 11.7778 5.09401 11.7638 5.33808C11.7315 5.90216 12.2772 5.94186 12.5395 5.96099Z" fill="white"/>
<path d="M18.1188 16.2972C18.0441 16.2402 17.9669 16.1811 17.8946 16.1229C17.5111 15.8143 17.1031 15.5298 16.7085 15.2547C16.6266 15.1976 16.5447 15.1405 16.4631 15.0833C15.9577 14.7283 15.5033 14.5557 15.074 14.5557C14.4957 14.5557 13.9916 14.8752 13.5755 15.5053C13.3911 15.7846 13.1675 15.9204 12.8919 15.9204C12.7289 15.9204 12.5437 15.8739 12.3415 15.7821C10.71 15.0423 9.54508 13.9079 8.8789 12.4107C8.55686 11.687 8.66126 11.2139 9.22801 10.8289C9.54985 10.6105 10.1489 10.2039 10.1065 9.42513C10.0584 8.54081 8.10722 5.87999 7.28511 5.57778C6.93704 5.44978 6.57133 5.44859 6.19617 5.5748C5.25108 5.89251 4.57287 6.45048 4.23469 7.18826C3.90788 7.90115 3.92264 8.73822 4.27737 9.60898C5.30286 12.1265 6.74464 14.3215 8.56282 16.1328C10.3425 17.9059 12.5299 19.3584 15.0641 20.4496C15.2925 20.5479 15.5321 20.6015 15.7071 20.6406C15.7667 20.654 15.8182 20.6654 15.8557 20.6757C15.8763 20.6813 15.8976 20.6844 15.9189 20.6846L15.939 20.6847C15.939 20.6847 15.939 20.6847 15.939 20.6847C17.131 20.6847 18.5622 19.5955 19.0017 18.3537C19.3868 17.2664 18.6837 16.729 18.1188 16.2972Z" fill="white"/>
<path d="M13.0667 8.83686C12.8626 8.84203 12.4379 8.85256 12.2889 9.28511C12.2192 9.48724 12.2275 9.66275 12.3137 9.80675C12.4403 10.018 12.6826 10.0828 12.9031 10.1183C13.7027 10.2466 14.1133 10.6887 14.1954 11.5096C14.2336 11.8924 14.4913 12.1596 14.8223 12.1596C14.8467 12.1596 14.8717 12.1582 14.8966 12.1552C15.2947 12.1078 15.4876 11.8154 15.4702 11.2861C15.4765 10.7337 15.1874 10.1066 14.6957 9.60704C14.2024 9.10598 13.6077 8.82379 13.0667 8.83686Z" fill="white"/>
</svg>
